<svg preserveAspectRatio="xMidYMid meet" viewBox="279.04 199.68 732.16 867.84" xmlns="http://www.w3.org/2000/svg" version="1.0" style="max-height: 500px" width="732.16" height="867.84">

<g stroke="none" fill="#000000" transform="translate(0.000000,1280.000000) scale(0.100000,-0.100000)">
<path d="M6967 10670 c111 -198 253 -469 253 -483 0 -4 -24 10 -52 32 -70 52&#10;-174 103 -276 135 -46 14 -86 26 -89 26 -3 0 57 -64 133 -142 77 -79 168 -180&#10;202 -226 75 -98 134 -216 139 -280 4 -44 1 -52 -49 -117 -29 -38 -67 -90 -84&#10;-115 -17 -25 -68 -99 -114 -165 -45 -66 -113 -172 -149 -235 -67 -117 -136&#10;-276 -129 -301 6 -27 103 -199 112 -199 4 0 6 6 3 14 -8 19 64 213 118 321 60&#10;119 143 252 240 385 22 30 43 59 47 65 4 5 20 26 36 45 16 19 35 45 44 58 8&#10;12 31 39 49 60 19 20 55 63 81 95 33 40 49 53 55 45 4 -7 11 -184 14 -393 6&#10;-314 11 -405 29 -525 23 -160 22 -155 79 -325 23 -66 42 -124 43 -130 4 -14&#10;-31 -10 -142 15 -104 23 -242 46 -335 56 -95 11 -265 14 -265 5 0 -20 82 -132&#10;102 -140 13 -6 73 -15 133 -21 253 -25 608 -103 824 -180 344 -122 694 -311&#10;898 -485 132 -114 282 -277 321 -350 6 -12 18 -88 27 -170 24 -225 30 -261 65&#10;-375 59 -195 136 -322 363 -602 42 -52 77 -99 77 -104 0 -5 -41 -17 -91 -27&#10;-51 -9 -120 -29 -155 -43 -80 -32 -93 -26 -166 72 -29 40 -97 118 -150 175&#10;-53 57 -111 122 -128 144 -18 22 -49 58 -71 80 -59 61 -190 213 -236 275 -55&#10;74 -77 120 -118 247 -32 100 -34 109 -18 121 9 6 20 12 24 12 13 0 31 143 25&#10;196 -14 120 -85 231 -218 340 -67 56 -155 114 -171 114 -15 0 -6 -76 18 -146&#10;14 -41 47 -119 74 -173 27 -54 52 -108 56 -120 4 -12 24 -53 46 -91 21 -38 39&#10;-73 39 -77 0 -4 -75 -8 -167 -8 -120 0 -200 -5 -278 -19 l-110 -19 -95 63&#10;c-97 63 -190 115 -190 105 0 -14 144 -213 164 -227 6 -4 47 -8 91 -8 44 0 85&#10;-4 90 -8 6 -4 41 -49 79 -99 76 -103 242 -267 312 -308 25 -15 86 -40 135 -56&#10;165 -53 307 -165 448 -353 75 -99 100 -127 231 -246 63 -58 118 -110 123 -117&#10;4 -6 58 -52 120 -101 109 -86 114 -92 140 -158 15 -38 27 -85 27 -104 0 -46&#10;-54 -150 -101 -196 -34 -34 -51 -40 -226 -83 -233 -59 -305 -73 -327 -65 -14&#10;5 -16 17 -10 79 l7 73 -49 26 c-53 28 -84 50 -84 60 0 3 26 6 59 6 94 0 108&#10;43 23 71 -61 19 -173 81 -169 93 2 7 45 13 110 16 62 3 111 10 118 17 19 19 3&#10;42 -43 62 -24 10 -70 31 -102 45 l-60 27 51 52 c56 58 67 79 50 96 -15 15&#10;-105 14 -227 -5 -145 -21 -164 -16 -248 65 -102 98 -279 209 -387 243 -115 36&#10;-285 69 -285 55 0 -3 31 -24 69 -46 175 -102 341 -251 438 -391 29 -41 87&#10;-133 130 -205 42 -71 96 -153 119 -181 24 -29 41 -54 38 -56 -2 -3 -35 3 -73&#10;13 -136 35 -286 31 -298 -7 -2 -6 41 -22 104 -39 180 -46 280 -83 458 -168&#10;168 -81 171 -82 245 -81 51 1 127 14 239 43 90 22 167 39 169 36 9 -9 -32 -87&#10;-68 -131 -47 -56 -145 -136 -207 -167 -58 -30 -157 -57 -204 -57 -68 1 -178&#10;39 -339 118 -170 83 -415 171 -604 218 -188 46 -283 55 -691 64 -465 11 -535&#10;20 -723 96 -228 92 -449 305 -584 564 -75 144 -166 386 -204 545 -13 51 -26&#10;-126 -19 -257 8 -161 56 -342 125 -478 29 -56 127 -194 185 -258 115 -128 302&#10;-247 459 -293 39 -11 77 -23 84 -25 9 -3 -8 -27 -46 -70 -61 -66 -114 -160&#10;-127 -224 -3 -19 -9 -44 -12 -55 -4 -13 9 -5 38 24 109 106 262 182 457 227&#10;107 24 347 48 416 42 l40 -3 -100 -65 c-123 -80 -273 -228 -331 -325 -49 -82&#10;-87 -179 -110 -279 -23 -102 -23 -416 1 -603 10 -78 16 -147 14 -154 -2 -6&#10;-31 22 -63 62 l-60 74 -7 -75 c-30 -301 -113 -521 -284 -756 -40 -56 -106&#10;-136 -145 -178 l-72 -77 -82 158 c-127 245 -198 355 -362 559 -174 218 -445&#10;504 -648 684 -473 421 -943 713 -1505 935 -102 40 -204 78 -227 84 -24 7 -43&#10;18 -43 25 0 14 121 133 201 198 51 42 164 96 260 126 99 31 231 44 386 41 157&#10;-4 160 -2 69 50 -88 51 -200 82 -313 88 l-102 6 32 46 c53 76 121 191 248 419&#10;186 332 280 487 441 727 202 300 288 407 480 603 67 67 124 122 128 122 4 0&#10;20 11 36 25 16 14 33 25 38 25 5 0 5 -32 0 -77 -5 -43 -9 -139 -8 -213 0 -154&#10;16 -215 85 -332 102 -173 259 -278 414 -277 86 1 85 11 -11 74 -113 74 -214&#10;175 -255 257 -44 86 -89 218 -75 217 6 0 36 -39 66 -86 74 -116 244 -289 325&#10;-330 107 -55 100 -59 100 65 0 93 3 113 24 151 13 25 33 53 45 63 31 27 126&#10;75 214 108 254 94 409 197 554 368 107 126 164 214 230 356 16 33 3 24 -99&#10;-74 -232 -224 -381 -311 -727 -431 -76 -26 -152 -57 -168 -69 -16 -12 -31 -20&#10;-33 -18 -6 7 156 321 190 368 20 27 53 62 75 78 l39 28 -65 47 c-36 26 -62 52&#10;-59 57 3 6 32 10 63 10 l57 1 -98 49 c-54 27 -121 66 -149 86 -46 34 -49 39&#10;-33 50 10 8 61 28 114 45 53 18 136 49 184 69 l88 36 -43 13 c-144 43 -488&#10;186 -488 203 0 9 -8 9 245 17 l190 6 -170 64 c-93 35 -201 80 -240 100 l-70&#10;36 225 3 225 3 -86 33 c-48 18 -120 51 -160 75 -131 74 -364 259 -348 275 8 8&#10;160 -22 337 -65 68 -17 128 -29 134 -27 5 2 1 15 -10 28 -56 72 -182 265 -174&#10;268 5 1 35 -9 67 -23 32 -14 60 -25 63 -25 27 0 -332 299 -408 340 -24 13 -28&#10;6 -40 -76 -16 -112 -36 -224 -95 -514 -57 -285 -65 -365 -44 -462 18 -81 78&#10;-221 148 -345 l64 -112 42 6 c48 6 99 -13 134 -51 l22 -24 -32 -57 c-24 -43&#10;-33 -72 -37 -124 -5 -82 8 -128 56 -194 26 -36 35 -59 36 -90 1 -62 -27 -269&#10;-35 -255 -4 7 -14 49 -23 92 -16 79 -18 81 -91 157 -102 104 -128 163 -128&#10;279 1 82 23 190 44 217 7 8 -13 43 -65 113 -137 183 -197 305 -217 443 -10 69&#10;-8 84 41 325 63 310 98 559 107 759 l6 153 66 -47 c199 -140 406 -325 556&#10;-496 55 -64 75 -93 70 -105 -18 -42 -14 -54 30 -124 114 -176 274 -459 275&#10;-485 0 -7 -20 -13 -52 -15 l-52 -3 43 -29 c58 -37 131 -105 131 -121 0 -7 -13&#10;-18 -30 -25 -38 -16 -39 -38 -2 -46 95 -20 98 -53 12 -136 -33 -32 -60 -60&#10;-60 -62 0 -3 94 14 158 29 43 10 7 -30 -98 -109 -56 -42 -97 -76 -93 -76 4 1&#10;33 9 63 20 112 39 125 22 59 -81 -48 -75 -157 -216 -188 -243 -41 -37 -20 -35&#10;52 6 146 83 239 155 355 276 77 80 89 85 67 27 -5 -13 8 -4 37 23 l44 42 159&#10;-36 c88 -20 172 -39 186 -41 31 -6 69 12 69 31 0 7 -46 41 -102 76 -121 75&#10;-190 125 -274 196 -55 47 -66 64 -114 171 -301 671 -573 1034 -1044 1395 -115&#10;88 -135 108 -187 187 -32 49 -82 115 -111 147 -29 32 -57 64 -63 71 -5 7 -53&#10;51 -105 97 -237 208 -497 360 -764 445 -54 18 -100 30 -102 28 -2 -2 14 -17&#10;37 -33 181 -132 233 -174 389 -317 83 -76 213 -217 207 -224 -2 -2 -35 12 -73&#10;30 -239 116 -490 169 -719 152 -115 -8 -114 -15 9 -61 432 -161 731 -332 895&#10;-510 l61 -67 0 -81 c0 -170 -39 -487 -97 -781 -53 -268 -46 -394 31 -568 22&#10;-50 23 -62 15 -128 -4 -41 -8 -138 -9 -216 l0 -142 -117 -94 c-65 -52 -170&#10;-148 -234 -213 -305 -314 -521 -626 -949 -1374 -157 -275 -241 -410 -300 -485&#10;-58 -72 -243 -253 -360 -351 -118 -99 -357 -282 -391 -300 -16 -8 -29 -18 -29&#10;-22 0 -4 62 -22 138 -41 156 -38 375 -108 537 -172 160 -63 478 -222 645 -323&#10;651 -393 1291 -1001 1633 -1552 122 -196 193 -354 247 -549 12 -44 24 -82 25&#10;-84 2 -1 43 27 90 64 304 238 537 579 612 895 38 158 33 153 80 89 66 -89 68&#10;-89 86 -17 29 117 37 233 36 534 -1 317 8 414 51 539 78 228 313 441 628 568&#10;70 29 78 28 270 -13 225 -49 383 -105 608 -218 154 -77 215 -95 329 -96 148 0&#10;301 62 443 181 101 84 164 173 193 271 7 23 15 42 19 42 17 0 103 79 142 130&#10;42 56 118 206 118 233 0 8 23 43 51 78 79 98 121 196 127 294 3 58 0 90 -11&#10;118 -23 54 -126 198 -281 391 -230 289 -309 489 -305 780 3 219 -15 255 -241&#10;479 -200 198 -292 268 -535 407 -188 108 -484 239 -645 285 -14 4 -31 12 -38&#10;18 -37 30 -119 250 -152 409 -33 156 -40 265 -40 613 -1 477 -20 580 -155 805&#10;-135 228 -315 414 -585 606 l-54 39 31 -55z m-1493 -2893 c1 -133 4 -158 22&#10;-198 26 -56 91 -121 161 -161 90 -51 81 -56 -43 -22 -65 18 -135 79 -168 147&#10;-31 65 -46 152 -46 282 -1 55 -5 119 -9 142 -5 23 -6 45 -3 47 2 3 23 -15 45&#10;-40 l41 -46 0 -151z m2872 -892 c-5 -54 -3 -73 15 -115 12 -27 27 -50 33 -50&#10;25 0 57 79 63 155 3 41 9 75 14 75 21 0 41 -15 61 -47 36 -60 23 -193 -28&#10;-270 -33 -51 -119 -16 -222 91 -61 62 -132 167 -132 192 0 16 68 32 144 33&#10;l59 1 -7 -65z m1517 -1064 c8 -38 -3 -75 -57 -185 -44 -91 -86 -146 -86 -114&#10;0 9 9 35 20 59 24 53 25 100 5 140 -20 37 -49 49 -128 50 -70 1 -121 13 -97&#10;22 90 33 193 55 271 56 66 1 67 1 72 -28z"/>
<path d="M8370 7857 c0 -2 19 -17 43 -32 197 -131 488 -416 603 -591 45 -68&#10;148 -263 167 -314 11 -30 7 28 -8 112 -33 190 -54 229 -215 394 -97 100 -190&#10;178 -338 282 -89 63 -252 159 -252 149z"/>
<path d="M9080 5505 c-17 -21 -5 -45 24 -45 30 0 72 33 62 48 -10 17 -71 15&#10;-86 -3z"/>
<path d="M9065 5330 c-4 -7 0 -19 9 -28 13 -13 20 -14 34 -6 9 6 17 17 17 25&#10;0 17 -50 24 -60 9z"/>
</g>
</svg>